<svg height="512" viewBox="0 0 512 512" width="512" xmlns="http://www.w3.org/2000/svg"><g id="Igloo"><g id="Flat"><path d="m280 72h-40v-64h88a8.009 8.009 0 0 1 8 8.021 56.063 56.063 0 0 1 -56 55.979z" fill="#ffd740"/><path d="m240 128a8 8 0 0 1 -8-8v-112a8 8 0 0 1 16 0v112a8 8 0 0 1 -8 8z" fill="#d6995c"/><circle cx="276" cy="28" fill="#ffe7a4" r="12"/><circle cx="296" cy="48" fill="#ffe7a4" r="8"/><path d="m432 504h-400v-197.083c0-74.937 57.551-157.4 128.222-182.329 140.278-49.472 271.778 53.903 271.778 187.412z" fill="#b2ebf2"/><path d="m279.977 117.821c-.977 125.079-102.665 226.179-227.977 226.179-6.741 0-13.408-.31-20-.883v160.883h400v-192c0-93.748-64.837-172.632-152.023-194.179z" fill="#80deea"/><path d="m310.627 128.115a210.219 210.219 0 0 1 1.373 23.885c0 114.875-93.125 208-208 208a207.562 207.562 0 0 1 -72-12.8v148.8a8 8 0 0 0 8 8h384a8 8 0 0 0 8-8v-184c0-82.381-50.07-153.28-121.373-183.885z" fill="#80deea"/><path d="m128 504v-56h304v-16h-272v-48h272v-16h-304v-48h304v-8q0-4.02-.16-8h-127.84v-48h120.02c-1.58-5.43-3.4-10.77-5.42-16h-66.6v-48h39.91a204.561 204.561 0 0 0 -13.38-16h-74.58c.03-.66.05-1.32.05-2v-48.6c-5.23-2.02-10.57-3.84-16-5.42v54.02c0 .68.02 1.34.05 2h-112.05v-56.02c-5.43 1.58-10.77 3.4-16 5.42v50.6h-74.53a204.561 204.561 0 0 0 -13.38 16h39.91v48h-66.6c-2.02 5.23-3.84 10.57-5.42 16h120.02v48h-127.84q-.165 3.975-.16 8v8h80v48h-80v16h112v48h-112v16h80v56zm160-200h-112v-48h112zm-48-112h96v48h-96zm-112 48v-48h96v48z" fill="#4dd0e1"/><path d="m392 504h-160a8 8 0 0 1 -8-8v-104a88.1 88.1 0 0 1 88-88h80a8 8 0 0 1 8 8v184a8 8 0 0 1 -8 8z" fill="#b2ebf2"/><path d="m336 344a8 8 0 0 1 -8 8h-94.37a88.639 88.639 0 0 1 10.53-16h83.84a8 8 0 0 1 8 8z" fill="#80deea"/><path d="m320 408a8 8 0 0 1 -8 8h-88v-16h88a8 8 0 0 1 8 8z" fill="#80deea"/><path d="m320 376a8 8 0 0 1 -8 8h-87.63a86.912 86.912 0 0 1 2.95-16h84.68a8 8 0 0 1 8 8z" fill="#80deea"/><path d="m320 440a8 8 0 0 1 -8 8h-88v-16h88a8 8 0 0 1 8 8z" fill="#80deea"/><path d="m472 504h-160a8 8 0 0 1 -8-8v-104a88 88 0 0 1 176 0v104a8 8 0 0 1 -8 8z" fill="#e0f7fa"/><path d="m304 400h176v16h-176z" fill="#b2ebf2"/><path d="m479.63 384h-175.26a86.912 86.912 0 0 1 2.95-16h169.36a86.912 86.912 0 0 1 2.95 16z" fill="#b2ebf2"/><path d="m359.992 360a7.969 7.969 0 0 1 -4.43-1.345l-24-16a8 8 0 0 1 8.875-13.312l24 16a8 8 0 0 1 -4.445 14.657z" fill="#b2ebf2"/><path d="m424.008 360a8 8 0 0 1 -4.446-14.657l24-16a8 8 0 1 1 8.875 13.312l-24 16a7.961 7.961 0 0 1 -4.429 1.345z" fill="#b2ebf2"/><path d="m304 432h176v16h-176z" fill="#b2ebf2"/><path d="m400 304.37v39.63a8 8 0 0 1 -16 0v-39.63q3.945-.375 8-.37t8 .37z" fill="#b2ebf2"/><path d="m440 504h-96a8 8 0 0 1 -8-8v-104a56 56 0 0 1 112 0v104a8 8 0 0 1 -8 8z" fill="#80deea"/><path d="m504 512h-496a8 8 0 0 1 0-16h496a8 8 0 0 1 0 16z" fill="#4dd0e1"/><circle cx="212" cy="148" fill="#e0f7fa" r="12"/><circle cx="84" cy="284" fill="#e0f7fa" r="12"/><path d="m445.767 376.382a55.994 55.994 0 0 0 -109.767 15.618v55.96a136.018 136.018 0 0 1 109.767-71.578z" fill="#4dd0e1"/><g fill="#ededed"><circle cx="424" cy="144" r="8"/><circle cx="408" cy="176" r="8"/><circle cx="488" cy="192" r="8"/><circle cx="472" cy="160" r="8"/><circle cx="24" cy="176" r="8"/><circle cx="440" cy="16" r="8"/><circle cx="376" cy="64" r="8"/><circle cx="392" cy="112" r="8"/><circle cx="456" cy="104" r="8"/><circle cx="488" cy="64" r="8"/><circle cx="424" cy="56" r="8"/><circle cx="144" cy="16" r="8"/><circle cx="168" cy="48" r="8"/><circle cx="152" cy="96" r="8"/><circle cx="88" cy="96" r="8"/><circle cx="40" cy="128" r="8"/><circle cx="24" cy="80" r="8"/><circle cx="56" cy="48" r="8"/><circle cx="104" cy="48" r="8"/></g></g></g></svg>